<?xml version="1.0" encoding="UTF-8"?><svg id="Layer_1" xmlns="http://www.w3.org/2000/svg" viewBox="0 0 200 236.23"><path d="m77.68,109.16c9.87-7.41,20.17-14.36,31.04-20.34,11.7-6.55,23.98-11.96,36.45-16.69,10.57-4.41,21.15-8.25,31.67-11.4,5.27-1.58,8.25-7.13,6.68-12.4-1.58-5.27-7.13-8.26-12.4-6.67-9.12,2.74-18.27,5.92-27.42,9.54-.13-10.51-.07-20.26.21-29.46.17-5.5-4.15-10.09-9.65-10.25-.1,0-.2,0-.31,0-5.36,0-9.78,4.26-9.94,9.65-.36,11.84-.37,24.56-.07,38.56-8.84,4.1-17.67,8.58-26.43,13.46-.29-8.42-.71-16.89-1.38-25.27-1.07-13.29-4.61-23.69-10.83-31.78-6.56-8.55-16.45-14.09-27.82-15.6-13.08-1.74-25.56,1.08-35.12,7.94C12.44,15.55,6.04,27.05,4.79,40c-1.52,15.83,5.93,29.99,18.99,36.06,5.27,2.45,11.4,3.64,18.2,3.47,5.5-.11,9.86-4.66,9.75-10.16-.11-5.5-4.62-9.75-10.16-9.75-3.71.06-6.91-.47-9.4-1.63-6.44-2.99-8.1-10.54-7.56-16.09.69-7.22,4.1-13.52,9.35-17.28,5.35-3.84,12.97-5.43,20.89-4.38,4.32.57,10.37,2.43,14.64,7.99,3.75,4.89,6.03,12.04,6.78,21.25.93,11.63,1.36,23.58,1.65,35.39-32.41,20.94-54.46,43.97-68.69,71.54C1.89,170.64-1.1,184.29.36,196.98c1.9,16.48,12.04,30.79,25.85,36.45,4.62,1.89,9.57,2.81,14.6,2.81,12.01,0,24.43-5.23,33.78-14.83,9.68-9.94,16.17-24.13,19.27-42.18,4.42-25.69,4.81-50.97,4.43-72.82-1.06.68-2.14,1.33-3.19,2.03-3.03,1.93-6.02,3.94-8.99,6-2.55,1.68-5.09,3.41-7.62,5.16-.04,17.67-.93,36.97-4.25,56.27-2.41,14-7.09,24.65-13.91,31.66-6.36,6.53-17.52,11.2-26.56,7.49-7.08-2.9-12.56-11.06-13.62-20.3-1-8.69,1.28-18.5,6.79-29.16,10.92-21.16,27.36-39.48,50.75-56.38Z"/><path d="m190.84,101.93c-5.46-.43-10.28,3.65-10.72,9.13-.34,4.23-1.92,11.81-8.74,15.06-6.16,2.94-12.31.33-16.02-3.11-5.11-4.72-8.25-12-9.59-22.28-.8-6.13-1.15-12.51-1.37-18.89-3.98,1.82-7.98,3.61-11.9,5.48-2.54,1.25-5.07,2.52-7.6,3.79.25,4.06.59,8.13,1.12,12.2,1.94,14.88,7.26,26.44,15.82,34.33,6.84,6.32,15.44,9.63,24.01,9.63,4.81,0,9.62-1.05,14.11-3.19,11.55-5.52,18.85-16.98,20.01-31.44.44-5.48-3.65-10.28-9.13-10.72Z"/></svg>
