<svg xmlns="http://www.w3.org/2000/svg" viewBox="0 0 69.25 78.55" width="69.25" height="78.55"><metadata><rdf:RDF xmlns:rdf="http://www.w3.org/1999/02/22-rdf-syntax-ns#" xmlns:dc="http://purl.org/dc/elements/1.1/"><rdf:Description><dc:creator>RealFaviconGenerator</dc:creator><dc:source>https://realfavicongenerator.net</dc:source></rdf:Description></rdf:RDF></metadata><defs><style>.cls-1{fill:none;stroke:#000;stroke-linecap:round;stroke-miterlimit:10;stroke-width:8px;}</style></defs><title>Asset 2</title><g id="Layer_2" data-name="Layer 2"><g id="Layer_1-2" data-name="Layer 1"><path class="cls-1" d="M65.25,37.51c-.24,3.16-1.7,6.17-4.67,7.6a7.91,7.91,0,0,1-8.84-1.53c-2.6-2.39-3.72-5.82-4.17-9.23a118.5,118.5,0,0,1-.65-12.06c-.14-4.75-.19-9.49-.06-14.24"></path><path class="cls-1" d="M58.41,18.29A118.73,118.73,0,0,0,33.74,28.39c-7.32,4-14.42,8.65-20.08,14.82a42.37,42.37,0,0,0-6.91,10c-2,4-3.41,8.66-2.44,13.14a10.35,10.35,0,0,0,5.82,7.42,11,11,0,0,0,9.62-.69c5.69-3.21,7.8-10.43,8.88-16.43,1.33-7.34,1.47-14.9,1.46-22.34,0-5.78,0-11.64-.32-17.41a16.26,16.26,0,0,0-2.69-8.71,10.29,10.29,0,0,0-6.85-4A12.84,12.84,0,0,0,11.05,6,11,11,0,0,0,6.5,13.88c-.4,3.41.92,7,4.16,8.6a10.19,10.19,0,0,0,4.49.92"></path></g></g></svg>